<svg xmlns="http://www.w3.org/2000/svg" xmlns:xlink="http://www.w3.org/1999/xlink"  viewBox="0 0 30 30"><defs><path id="a" d="M23 4c1.7 0 3 1.3 3 3v16c0 1.7-1.3 3-3 3h-3.6v-6.8H22c.3 0 .5-.1.5-.5V16c0-.4-.1-.5-.5-.5h-2.6v-2c0-.2.1-.4.1-.5.2-.3.5-.4.8-.4H22.1c.3 0 .4-.1.4-.4V9.5c0-.3-.1-.4-.4-.4h-.5c-.9 0-1.7 0-2.6.1-1 .1-1.8.5-2.4 1.3-.7.8-1 1.7-1 2.8V15.6h-2.2c-.3 0-.5.1-.5.5v2.8c0 .3.1.5.5.5h2.2v6.8H7c-1.6 0-2.9-1.2-3-2.8V7c0-1.7 1.3-3 3-3h16z"/></defs><clipPath id="b"><use xlink:href="#a" overflow="visible"/></clipPath><path d="M3 3h24v24H3z" clip-path="url(#b)"/></svg>