<svg xmlns="http://www.w3.org/2000/svg"  viewBox="0 0 30 30"><path fill-rule="evenodd" d="M20.2 26H9.9c-.2 0-.4-.1-.6-.1-3-.5-5.3-3.2-5.3-6.2v-9.4c0-.4 0-.8.1-1.2C4.8 6 7.4 4 10.5 4h9.8c2.6.3 4.8 2.1 5.5 4.6.1.4.3.8.3 1.2L26 19.9v.3c-.3 2.7-2.2 4.8-4.8 5.5-.4.2-.7.2-1 .3M15 20.5c3 0 5.5-2.4 5.5-5.5 0-3-2.4-5.5-5.5-5.5-3 0-5.5 2.4-5.5 5.5 0 3 2.5 5.5 5.5 5.5m6.4-12.8c-.5 0-.9.4-.9.9s.4.9.9.9.9-.4.9-.9-.4-.9-.9-.9M18.7 15c0-2-1.6-3.7-3.7-3.7-2 0-3.7 1.6-3.7 3.7 0 2 1.6 3.7 3.7 3.7 2 0 3.7-1.7 3.7-3.7" clip-rule="evenodd"/></svg>