<svg xmlns="http://www.w3.org/2000/svg" width="58" height="74" viewBox="0 0 58 74"><path d="M49.06.67C46.134 3.016 38 18.688 32.145 30.63c.976 2.025 2.06 4.158 3.145 6.29C39.52 25.405 44.399 13.357 49.062.67h-.002zM27.129 41.753c-.211.428-.422.855-.528 1.176-3.06 6.411-6.86 11.327-9.604 13.892-.95-.428-2.111-.749-3.272-.749-4.222 0-7.705 3.527-7.705 7.801 0 1.924.633 3.633 1.794 5.023-1.583 1.923-3.272 2.35-4.538 2.35-1.056 0-1.794-.32-1.9-.32-.106-.107-.317-.107-.422-.107-.422 0-.739.214-.95.534-.211.535 0 1.069.528 1.283.633.32 1.583.534 2.744.534 1.794 0 4.116-.748 6.016-2.992 1.266.962 2.85 1.496 4.538 1.496 4.222 0 7.705-3.526 7.705-7.8 0-1.924-.633-3.634-1.794-5.023 2.744-5.45 6.016-10.152 9.182-12.396l-.317-.855c-.633-1.175-1.055-2.564-1.477-3.847zM13.617 69.948c-3.075 0-5.638-2.637-5.638-6.042 0-3.295 2.46-6.042 5.638-6.042 3.076 0 5.64 2.637 5.64 6.042s-2.564 6.042-5.64 6.042z"/><path d="M49.481 55.144c-1.165 0-2.224.212-3.283.743-2.754-2.548-6.567-7.54-9.639-13.804L25.543 19.465C20.989 10.545 16.434 2.263 14.422.67c3.707 10.619 7.732 20.706 11.333 30.37l5.19 13.273c.212 0 .424 0 .848.212 3.919 1.168 8.261 6.69 11.65 13.486-1.164 1.38-1.8 3.08-1.8 4.99 0 4.248 3.495 7.752 7.732 7.752s7.732-3.504 7.732-7.751c.212-4.354-3.283-7.858-7.626-7.858zm-17.74-14.196a1.22 1.22 0 0 1-1.208-1.209c0-.659.55-1.208 1.208-1.208.66 0 1.209.55 1.209 1.208 0 .66-.55 1.209-1.209 1.209zm17.32 28.194c-3.076 0-5.639-2.636-5.639-6.041 0-3.296 2.46-6.042 5.639-6.042 3.076 0 5.639 2.636 5.639 6.042 0 3.405-2.563 6.041-5.64 6.041h.001z"/></svg>