<svg xmlns="http://www.w3.org/2000/svg" viewBox="0 0 168 75"><path fill="#1D1C1B" d="M7.213 35.333c1.81 0 3.662-.959 3.662-2.67v-3.037c0-1.906-1.649-2.986-3.662-2.986a3.587 3.587 0 0 0-3.615 3.589v1.433c0 2.038 1.607 3.67 3.615 3.67zm-6.181-3.671v-1.433c0-3.267 2.809-6.14 6.18-6.14 1.289 0 3.175.558 3.741 2.196l-.078-1.8c0-1.995-1.649-3.585-3.662-3.585-.924 0-2.008.515-3.009 1.476L2.71 20.18c1.254-1.113 2.98-1.876 4.503-1.876 3.341 0 6.23 2.756 6.23 6.182v13.158h-2.25l-.24-1.75c-.803 1.556-2.567 1.99-3.74 1.99-3.372 0-6.181-2.864-6.181-6.221zm26.92.202c0 1.873 1.687 3.505 3.74 3.505 2.045 0 3.615-1.394 3.615-3.07v-8.127c-.038-1.917-1.288-3.274-3.616-3.274-2.012 0-3.739 1.478-3.739 3.43v7.536zm-2.57 0v-7.536c0-3.195 2.937-6.1 6.31-6.026 1.202.042 2.89.6 3.615 2.002v-10.13h2.574v27.468H35.67l-.325-1.75c-.721 1.672-2.29 2.03-3.653 2.03-3.335 0-6.309-2.83-6.309-6.058zm30.385-3.75c2.008 0 3.616-1.635 3.616-3.67 0-1.991-1.608-3.587-3.616-3.587a3.635 3.635 0 0 0-3.659 3.668v3.588h3.659zm0 2.194h-3.659v1.352c0 1.996 1.643 3.588 3.659 3.588 1.122 0 2.57-.552 3.537-1.868l2.126 1.512c-1.57 2.236-3.86 2.914-5.663 2.914-3.381 0-6.232-2.63-6.232-6.146v-7.177c0-3.266 2.696-6.219 6.232-6.219 3.372 0 6.186 2.756 6.186 6.18 0 3.547-2.857 5.864-6.186 5.864zm24.875 7.336c-3.86 0-6.79-2.625-6.79-6.298V10.335h2.528v21.011c0 2.073 1.848 3.79 4.262 3.79v2.508zm12.86-13.077v13.077h-2.575v-27.31h2.575l.04 10.485c.564-1.515 2.082-2.474 3.653-2.474 3.936 0 6.145 2.91 6.145 6.222l.045 13.077h-2.57V24.567c0-2.035-1.608-3.668-3.62-3.668-2.043 0-3.693 1.633-3.693 3.668m27.768 3.546c2.009 0 3.613-1.634 3.613-3.668a3.584 3.584 0 0 0-3.613-3.588 3.64 3.64 0 0 0-3.657 3.671v3.585h3.657zm0 2.195h-3.657v1.352c0 1.996 1.649 3.588 3.657 3.588 1.127 0 2.57-.552 3.537-1.868l2.126 1.512c-1.57 2.236-3.856 2.914-5.663 2.914-3.375 0-6.23-2.63-6.23-6.146v-7.177c0-3.263 2.693-6.219 6.23-6.219 3.376 0 6.186 2.756 6.186 6.18 0 3.547-2.855 5.863-6.186 5.864zM139.638 37.644h2.531V18.508h-2.531zM156.761 31.864c0 1.873 1.683 3.505 3.734 3.505 2.047 0 3.611-1.394 3.611-3.07v-8.127c-.037-1.917-1.283-3.274-3.61-3.274-2.009 0-3.735 1.478-3.735 3.43v7.536zm-2.575 0v-7.536c0-3.191 2.932-6.1 6.31-6.022 1.197.042 2.89.595 3.61 1.998v-10.13h2.574v27.468h-2.21l-.321-1.75c-.723 1.672-2.287 2.03-3.654 2.03-3.337 0-6.309-2.83-6.309-6.058zM45.211 74.7h-1.91V58.638c0-2.738 2.516-4.723 5.397-4.723v1.893c-1.88 0-3.487 1.265-3.487 2.83v4.931h3.123v1.897H45.21V74.7m11.304 0V60.321h1.728l.213 1.385C59 60.5 60.122 60.14 60.94 60.14c.636 0 1.333.15 2.273.662l-.666 1.714c-1.698-.993-3.942-.39-4.092 1.654v10.53h-1.941m14.607 0h1.91V60.26h-1.91v14.44zm2.274-16.726c0 .723-.637 1.263-1.334 1.263a1.25 1.25 0 0 1-1.243-1.263c0-.782.576-1.293 1.243-1.293.697 0 1.334.511 1.334 1.293zm15.759 5.595c-.758-1.083-1.728-1.624-2.516-1.624-.818 0-1.576.33-2.092.903-.394.36-.666.962-.666 1.713-.03 1.324 1.121 1.746 2.516 1.806 2.334.06 4.577 1.412 4.577 4.21.03 2.949-2.364 4.334-4.728 4.334-1.637 0-3.517-.935-4.548-2.708l1.667-.873c.699 1.113 1.82 1.654 2.91 1.654 1.395 0 2.758-.842 2.758-2.407 0-1.503-1.302-2.224-2.667-2.256-2.455-.06-4.426-1.081-4.426-3.76-.03-2.887 2.305-4.51 4.67-4.51 1.514 0 3.06.781 4.182 2.435l-1.637 1.083m18.152-5.835c0 .721-.486 1.173-1.183 1.173-.759 0-1.272-.452-1.272-1.173 0-.753.513-1.264 1.272-1.264.697 0 1.183.632 1.183 1.264zm.121 6.98c0-1.776-1.426-2.739-2.88-2.739-1.425 0-2.879.963-2.879 2.738v5.475c0 1.804 1.454 2.706 2.88 2.706 1.453 0 2.88-.902 2.88-2.706v-5.475zm-3.789-6.98c0 .721-.516 1.173-1.211 1.173-.73 0-1.243-.452-1.243-1.173 0-.753.513-1.264 1.243-1.264.695 0 1.211.632 1.211 1.264zm5.727 12.454c0 3.128-2.423 4.661-4.817 4.661-2.427 0-4.821-1.533-4.821-4.661v-5.475c0-3.158 2.426-4.664 4.82-4.664 2.424 0 4.818 1.506 4.818 4.664v5.475zm8.668 4.511V60.321h1.728l.212 1.385c.545-1.205 1.667-1.565 2.486-1.565.635 0 1.333.15 2.273.662l-.667 1.714c-1.697-.993-3.94-.39-4.092 1.654v10.53h-1.94"/><path fill="#AE9963" d="M145.664 14.366l-4.598-3.349-4.636 3.311 1.787-5.377-4.597-3.346 5.704.027 1.787-5.373 1.738 5.384 5.705.027-4.631 3.308z"/><path stroke="#AD9963" stroke-width="2" d="M1.5 47h165.003" stroke-linecap="square"/></svg>